<svg xmlns="http://www.w3.org/2000/svg" viewBox="0 0 900 560"><rect width="900" height="560" rx="34" fill="#EAF2FF"/><rect x="90" y="100" width="215" height="360" rx="34" fill="#fff" stroke="#d7e6fa"/><rect x="115" y="140" width="165" height="260" rx="24" fill="#EAF2FF"/><rect x="140" y="165" width="115" height="18" rx="9" fill="#c9d9ee"/><rect x="140" y="205" width="54" height="60" rx="15" fill="#fff"/><rect x="201" y="205" width="54" height="60" rx="15" fill="#0A3D91"/><rect x="140" y="286" width="115" height="14" rx="7" fill="#fff"/><rect x="140" y="315" width="95" height="14" rx="7" fill="#fff"/><rect x="342" y="130" width="460" height="310" rx="28" fill="#fff" stroke="#d7e6fa"/><rect x="380" y="168" width="180" height="20" rx="10" fill="#d6e4f6"/><rect x="380" y="215" width="360" height="72" rx="18" fill="#EAF2FF"/><rect x="380" y="305" width="172" height="88" rx="18" fill="#F4F9FF"/><rect x="568" y="305" width="172" height="88" rx="18" fill="#EAF2FF"/><path d="M414 262h130M580 262h126" stroke="#0A3D91" stroke-width="8" stroke-linecap="round"/></svg>